<svg width="425.1738037109375px" height="138.1075408935547px" xmlns="http://www.w3.org/2000/svg" viewBox="37.41309814453126 5.946229553222651 425.1738037109375 138.1075408935547" style="background: none;" preserveAspectRatio="xMidYMid"><defs><filter id="editing-hole" x="-100%" y="-100%" width="300%" height="300%"><feFlood flood-color="#bbcedd" result="black"></feFlood><feMorphology operator="dilate" radius="2" in="SourceGraphic" result="erode"></feMorphology><feGaussianBlur in="erode" stdDeviation="4" result="blur"></feGaussianBlur><feOffset in="blur" dx="2" dy="2" result="offset"></feOffset><feComposite operator="atop" in="offset" in2="black" result="merge"></feComposite><feComposite operator="in" in="merge" in2="SourceGraphic" result="inner-shadow"></feComposite></filter></defs><g filter="url(#editing-hole)"><g transform="translate(100.07405948638916, 96.15500068664551)"><path d="M21.25 0.64L21.06 0.19L21.31-2.30L21.31-2.30Q24.58-2.56 25.79-3.07L25.79-3.07L25.79-3.07Q27.01-3.58 27.01-4.74L27.01-4.74L27.01-4.74Q27.01-6.02 26.43-7.81L26.43-7.81L24.32-14.78L24.32-14.78Q22.78-14.85 17.66-14.85L17.66-14.85L17.66-14.85Q14.59-14.85 10.69-14.34L10.69-14.34L8.32-7.68L8.32-7.68Q7.74-5.95 7.74-5.18L7.74-5.18L7.74-5.18Q7.74-3.78 8.64-3.17L8.64-3.17L8.64-3.17Q9.54-2.56 11.58-2.56L11.58-2.56L15.23-2.56L15.36-2.30L14.98 0.45L14.98 0.45Q14.21 0.38 11.46 0.19L11.46 0.19L11.46 0.19Q8.70 0 6.08 0L6.08 0L6.08 0Q3.71 0 1.70 0.06L1.70 0.06L1.70 0.06Q-0.32 0.13-0.96 0.19L-0.96 0.19L-0.45-2.82L-0.45-2.82Q1.34-3.01 2.43-4.06L2.43-4.06L2.43-4.06Q3.52-5.12 4.54-7.74L4.54-7.74L17.02-40.45L21.06-41.54L21.57-41.54L21.57-41.54Q21.95-40 23.52-34.43L23.52-34.43L23.52-34.43Q25.09-28.86 27.36-21.25L27.36-21.25L27.36-21.25Q29.63-13.63 31.74-7.23L31.74-7.23L31.74-7.23Q32.51-4.86 33.79-3.90L33.79-3.90L33.79-3.90Q35.07-2.94 37.89-2.69L37.89-2.69L38.02-2.43L37.57 0.19L37.57 0.19Q36.80 0.19 34.78 0.10L34.78 0.10L34.78 0.10Q32.77 0 30.78 0L30.78 0L30.78 0Q27.71 0 24.86 0.26L24.86 0.26L24.86 0.26Q22.02 0.51 21.25 0.64L21.25 0.64ZM11.84-17.47L17.47-17.47L17.47-17.47Q19.78-17.47 23.42-17.79L23.42-17.79L18.37-34.56L17.92-34.56L11.84-17.47ZM60.74 0.51L60.54 0.06L60.80-2.43L60.80-2.43Q63.42-2.56 64.61-3.07L64.61-3.07L64.61-3.07Q65.79-3.58 65.79-4.67L65.79-4.67L65.79-4.67Q65.79-5.63 64.51-7.49L64.51-7.49L57.54-17.98L51.65-10.18L51.65-10.18Q49.66-7.55 49.02-6.46L49.02-6.46L49.02-6.46Q48.38-5.38 48.38-4.48L48.38-4.48L48.38-4.48Q48.38-3.65 49.28-3.17L49.28-3.17L49.28-3.17Q50.18-2.69 52.10-2.56L52.10-2.56L52.22-2.30L51.78 0.45L51.78 0.45Q51.01 0.38 48.61 0.19L48.61 0.19L48.61 0.19Q46.21 0 44.74 0L44.74 0L44.74 0Q43.20 0 41.12 0.10L41.12 0.10L41.12 0.10Q39.04 0.19 38.40 0.26L38.40 0.26L38.14-0.19L38.59-2.82L38.59-2.82Q41.22-3.58 43.46-5.60L43.46-5.60L43.46-5.60Q45.70-7.62 48.96-11.65L48.96-11.65L56-20.35L47.62-32.90L47.62-32.90Q46.02-35.26 43.90-36.54L43.90-36.54L43.90-36.54Q41.79-37.82 38.85-38.21L38.85-38.21L38.72-38.46L39.10-40.96L39.10-40.96Q40.13-40.96 42.88-40.86L42.88-40.86L42.88-40.86Q45.63-40.77 48.32-40.77L48.32-40.77L48.32-40.77Q51.46-40.77 53.89-40.99L53.89-40.99L53.89-40.99Q56.32-41.22 56.96-41.28L56.96-41.28L57.15-40.83L56.96-38.59L56.96-38.59Q54.27-38.40 53.12-37.86L53.12-37.86L53.12-37.86Q51.97-37.31 51.97-36.29L51.97-36.29L51.97-36.29Q51.97-35.58 53.73-32.67L53.73-32.67L53.73-32.67Q55.49-29.76 59.20-24.13L59.20-24.13L61.63-27.39L61.63-27.39Q64.38-30.98 65.98-33.31L65.98-33.31L65.98-33.31Q67.58-35.65 67.58-36.54L67.58-36.54L67.58-36.54Q67.58-37.38 66.72-37.82L66.72-37.82L66.72-37.82Q65.86-38.27 63.87-38.46L63.87-38.46L63.74-38.72L64.13-41.22L64.13-41.22Q64.90-41.15 67.30-40.96L67.30-40.96L67.30-40.96Q69.70-40.77 71.17-40.77L71.17-40.77L71.17-40.77Q72.70-40.77 74.72-40.86L74.72-40.86L74.72-40.86Q76.74-40.96 77.38-41.02L77.38-41.02L77.63-40.58L77.25-38.21L77.25-38.21Q74.50-37.63 72.96-36.38L72.96-36.38L72.96-36.38Q71.42-35.14 68.54-31.55L68.54-31.55L60.80-21.76L70.14-8.13L70.14-8.13Q71.87-5.57 73.89-4.32L73.89-4.32L73.89-4.32Q75.90-3.07 78.91-2.82L78.91-2.82L79.04-2.56L78.59 0.19L78.59 0.19Q77.76 0.13 75.46 0.06L75.46 0.06L75.46 0.06Q73.15 0 70.66 0L70.66 0L70.66 0Q68.42 0 65.09 0.22L65.09 0.22L65.09 0.22Q61.76 0.45 60.74 0.51L60.74 0.51ZM82.94 0.77L83.33-2.18L83.33-2.18Q86.34-2.75 87.39-3.87L87.39-3.87L87.39-3.87Q88.45-4.99 88.45-7.68L88.45-7.68L88.51-34.56L88.51-34.56Q88.51-36.61 88.03-37.31L88.03-37.31L88.03-37.31Q87.55-38.02 86.14-38.02L86.14-38.02L83.46-37.89L83.33-38.14L83.78-40.96L83.78-40.96Q84.80-40.96 85.38-40.90L85.38-40.90L91.39-40.77L91.39-40.77Q94.27-40.77 98.75-41.34L98.75-41.34L98.50-38.46L98.50-38.46Q95.87-38.14 94.94-37.41L94.94-37.41L94.94-37.41Q94.02-36.67 93.89-34.82L93.89-34.82L93.89-34.82Q93.50-27.33 93.25-19.17L93.25-19.17L93.25-19.17Q92.99-11.01 92.99-7.17L92.99-7.17L92.99-7.17Q92.99-4.54 93.57-3.68L93.57-3.68L93.57-3.68Q94.14-2.82 95.81-2.82L95.81-2.82L95.81-2.82Q96.90-2.82 99.20-3.01L99.20-3.01L99.33-2.75L98.75 0.19L98.75 0.19Q97.86 0.19 97.34 0.13L97.34 0.13L97.34 0.13Q92.86 0 90.37 0L90.37 0L90.37 0Q87.23 0 82.94 0.77L82.94 0.77ZM116.48 0.77L116.48 0.77Q113.79 0.77 111.55 0.29L111.55 0.29L111.55 0.29Q109.31-0.19 107.87-0.77L107.87-0.77L107.87-0.77Q106.43-1.34 106.43-1.41L106.43-1.41L106.11-2.05L106.11-2.05Q106.18-2.43 106.37-3.97L106.37-3.97L106.37-3.97Q106.56-5.50 106.72-7.97L106.72-7.97L106.72-7.97Q106.88-10.43 106.88-13.18L106.88-13.18L109.76-13.50L109.76-13.50Q109.76-8.70 110.40-6.40L110.40-6.40L110.40-6.40Q111.04-4.10 112.77-3.23L112.77-3.23L112.77-3.23Q114.50-2.37 118.08-2.37L118.08-2.37L118.08-2.37Q122.11-2.37 124.54-4.26L124.54-4.26L124.54-4.26Q126.98-6.14 126.98-9.41L126.98-9.41L126.98-9.41Q126.98-11.33 125.66-12.86L125.66-12.86L125.66-12.86Q124.35-14.40 122.56-15.49L122.56-15.49L122.56-15.49Q120.77-16.58 117.25-18.43L117.25-18.43L117.25-18.43Q113.92-20.16 111.81-21.60L111.81-21.60L111.81-21.60Q109.70-23.04 108.26-25.02L108.26-25.02L108.26-25.02Q106.82-27.01 106.82-29.63L106.82-29.63L106.82-29.63Q106.82-32.96 108.77-35.68L108.77-35.68L108.77-35.68Q110.72-38.40 114.08-39.97L114.08-39.97L114.08-39.97Q117.44-41.54 121.54-41.54L121.54-41.54L121.54-41.54Q124.10-41.54 126.27-41.18L126.27-41.18L126.27-41.18Q128.45-40.83 129.73-40.45L129.73-40.45L129.73-40.45Q131.01-40.06 131.33-39.94L131.33-39.94L131.52-39.55L131.52-39.55Q131.46-39.17 131.20-37.76L131.20-37.76L131.20-37.76Q130.94-36.35 130.62-33.86L130.62-33.86L130.62-33.86Q130.30-31.36 130.11-28.74L130.11-28.74L127.62-28.48L127.23-28.80L127.23-28.80Q127.30-29.06 127.36-29.98L127.36-29.98L127.36-29.98Q127.42-30.91 127.42-32.13L127.42-32.13L127.42-32.13Q127.42-35.52 125.76-36.80L125.76-36.80L125.76-36.80Q124.10-38.08 119.81-38.08L119.81-38.08L119.81-38.08Q116.29-38.08 114.02-36.32L114.02-36.32L114.02-36.32Q111.74-34.56 111.74-31.94L111.74-31.94L111.74-31.94Q111.74-29.38 113.95-27.49L113.95-27.49L113.95-27.49Q116.16-25.60 120.45-23.36L120.45-23.36L120.45-23.36Q124.61-21.25 126.78-19.87L126.78-19.87L126.78-19.87Q128.96-18.50 130.62-16.45L130.62-16.45L130.62-16.45Q132.29-14.40 132.29-11.71L132.29-11.71L132.29-11.71Q132.29-8.13 130.27-5.28L130.27-5.28L130.27-5.28Q128.26-2.43 124.67-0.83L124.67-0.83L124.67-0.83Q121.09 0.77 116.48 0.77L116.48 0.77ZM170.75 0.77L170.75 0.77Q164.99 0.77 160.64-1.66L160.64-1.66L160.64-1.66Q156.29-4.10 153.95-8.54L153.95-8.54L153.95-8.54Q151.62-12.99 151.62-19.01L151.62-19.01L151.62-19.01Q151.62-25.41 154.50-30.56L154.50-30.56L154.50-30.56Q157.38-35.71 162.46-38.62L162.46-38.62L162.46-38.62Q167.55-41.54 173.95-41.54L173.95-41.54L173.95-41.54Q176.32-41.54 178.78-41.18L178.78-41.18L178.78-41.18Q181.25-40.83 182.94-40.48L182.94-40.48L182.94-40.48Q184.64-40.13 185.09-40L185.09-40L185.34-39.62L185.34-39.62Q185.22-39.23 184.93-37.76L184.93-37.76L184.93-37.76Q184.64-36.29 184.29-33.92L184.29-33.92L184.29-33.92Q183.94-31.55 183.74-28.93L183.74-28.93L180.67-28.67L180.67-28.67Q180.74-28.99 180.80-29.86L180.80-29.86L180.80-29.86Q180.86-30.72 180.86-31.81L180.86-31.81L180.86-31.81Q180.86-37.76 171.46-37.76L171.46-37.76L171.46-37.76Q167.23-37.76 164.03-35.71L164.03-35.71L164.03-35.71Q160.83-33.66 159.10-29.92L159.10-29.92L159.10-29.92Q157.38-26.18 157.38-21.12L157.38-21.12L157.38-21.12Q157.38-15.55 159.20-11.33L159.20-11.33L159.20-11.33Q161.02-7.10 164.35-4.77L164.35-4.77L164.35-4.77Q167.68-2.43 172.03-2.43L172.03-2.43L172.03-2.43Q176.38-2.43 179.04-4.90L179.04-4.90L179.04-4.90Q181.70-7.36 182.91-12.54L182.91-12.54L185.98-12.80L185.98-12.80Q185.79-11.84 185.15-8.54L185.15-8.54L185.15-8.54Q184.51-5.25 184.26-2.37L184.26-2.37L183.87-1.79L183.87-1.79Q183.87-1.73 181.92-1.06L181.92-1.06L181.92-1.06Q179.97-0.38 177.06 0.19L177.06 0.19L177.06 0.19Q174.14 0.77 170.75 0.77L170.75 0.77ZM210.05 0.77L210.05 0.77Q203.33 0.77 199.68-2.91L199.68-2.91L199.68-2.91Q196.03-6.59 196.03-13.38L196.03-13.38L196.03-34.56L196.03-34.56Q196.03-36.61 195.55-37.31L195.55-37.31L195.55-37.31Q195.07-38.02 193.66-38.02L193.66-38.02L193.66-38.02Q193.02-38.02 192.38-37.95L192.38-37.95L192.38-37.95Q191.74-37.89 191.49-37.89L191.49-37.89L191.36-38.14L191.81-40.96L191.81-40.96Q192.58-40.90 194.72-40.83L194.72-40.83L194.72-40.83Q196.86-40.77 199.04-40.77L199.04-40.77L199.04-40.77Q200.77-40.77 202.94-40.99L202.94-40.99L202.94-40.99Q205.12-41.22 205.76-41.34L205.76-41.34L205.50-38.46L205.50-38.46Q203.14-38.14 202.34-37.41L202.34-37.41L202.34-37.41Q201.54-36.67 201.41-34.82L201.41-34.82L200.90-16L200.90-16Q200.90-9.66 203.65-6.27L203.65-6.27L203.65-6.27Q206.40-2.88 211.58-2.88L211.58-2.88L211.58-2.88Q216.83-2.88 219.58-5.66L219.58-5.66L219.58-5.66Q222.34-8.45 222.34-13.70L222.34-13.70L222.34-13.70Q222.27-18.82 222.14-25.38L222.14-25.38L222.14-25.38Q222.02-31.94 221.95-34.56L221.95-34.56L221.95-34.56Q221.82-36.80 221.41-37.41L221.41-37.41L221.41-37.41Q220.99-38.02 219.58-38.02L219.58-38.02L219.58-38.02Q218.82-38.02 217.98-37.95L217.98-37.95L217.98-37.95Q217.15-37.89 216.83-37.89L216.83-37.89L216.70-38.14L217.15-40.96L217.15-40.96Q217.92-40.90 220.06-40.83L220.06-40.83L220.06-40.83Q222.21-40.77 224.38-40.77L224.38-40.77L224.38-40.77Q226.11-40.77 228.06-40.99L228.06-40.99L228.06-40.99Q230.02-41.22 230.59-41.34L230.59-41.34L230.34-38.46L230.34-38.46Q228.42-38.21 227.49-37.86L227.49-37.86L227.49-37.86Q226.56-37.50 226.24-36.83L226.24-36.83L226.24-36.83Q225.92-36.16 225.92-34.82L225.92-34.82L225.92-13.31L225.92-13.31Q225.92-6.59 221.76-2.91L221.76-2.91L221.76-2.91Q217.60 0.77 210.05 0.77L210.05 0.77ZM237.06 0.64L237.44-2.30L237.44-2.30Q239.94-2.69 240.86-3.81L240.86-3.81L240.86-3.81Q241.79-4.93 241.79-7.68L241.79-7.68L241.86-34.56L241.86-34.56Q241.86-36.61 241.38-37.31L241.38-37.31L241.38-37.31Q240.90-38.02 239.49-38.02L239.49-38.02L239.49-38.02Q238.85-38.02 238.21-37.95L238.21-37.95L238.21-37.95Q237.57-37.89 237.31-37.89L237.31-37.89L237.18-38.14L237.63-40.96L237.63-40.96Q238.40-40.90 240.51-40.83L240.51-40.83L240.51-40.83Q242.62-40.77 244.80-40.77L244.80-40.77L244.80-40.77Q246.53-40.77 248.74-40.99L248.74-40.99L248.74-40.99Q250.94-41.22 251.65-41.34L251.65-41.34L251.39-38.46L251.39-38.46Q249.28-38.21 248.48-37.63L248.48-37.63L248.48-37.63Q247.68-37.06 247.52-36.29L247.52-36.29L247.52-36.29Q247.36-35.52 247.17-32.51L247.17-32.51L247.17-32.51Q246.78-27.07 246.59-20.10L246.59-20.10L246.59-20.10Q246.40-13.12 246.40-7.81L246.40-7.81L246.40-7.81Q246.40-5.50 246.78-4.51L246.78-4.51L246.78-4.51Q247.17-3.52 248.22-3.20L248.22-3.20L248.22-3.20Q249.28-2.88 251.84-2.88L251.84-2.88L251.84-2.88Q255.74-2.88 257.57-3.52L257.57-3.52L257.57-3.52Q259.39-4.16 260.32-6.02L260.32-6.02L260.32-6.02Q261.25-7.87 262.02-11.97L262.02-11.97L264.83-12.29L265.02-11.97L265.02-11.97Q264.83-10.94 264.22-7.36L264.22-7.36L264.22-7.36Q263.62-3.78 263.17 0.19L263.17 0.19L262.85 0.58L262.85 0.58Q260.99 0.45 255.20 0.22L255.20 0.22L255.20 0.22Q249.41 0 245.63 0L245.63 0L245.63 0Q242.62 0 240.16 0.26L240.16 0.26L240.16 0.26Q237.70 0.51 237.06 0.64L237.06 0.64ZM273.15 0.26L273.66-2.50L273.66-2.50Q276.86-2.75 278.08-3.30L278.08-3.30L278.08-3.30Q279.30-3.84 279.68-5.28L279.68-5.28L279.68-5.28Q280.06-6.72 280.06-10.37L280.06-10.37L280.06-38.27L280.06-38.27Q274.62-38.08 272.67-37.66L272.67-37.66L272.67-37.66Q270.72-37.25 270.02-35.81L270.02-35.81L270.02-35.81Q269.31-34.37 268.74-30.21L268.74-30.21L265.73-29.95L265.73-29.95Q266.50-36.03 266.69-41.02L266.69-41.02L267.26-41.54L272.58-40.83L292.42-40.83L297.86-41.54L298.43-41.02L298.43-41.02Q298.62-35.78 299.39-30.21L299.39-30.21L296.38-29.95L296.38-29.95Q295.68-34.18 294.98-35.65L294.98-35.65L294.98-35.65Q294.27-37.12 292.48-37.57L292.48-37.57L292.48-37.57Q290.69-38.02 285.57-38.27L285.57-38.27L285.57-38.27Q285.18-34.43 284.86-24.70L284.86-24.70L284.86-24.70Q284.54-14.98 284.54-7.17L284.54-7.17L284.54-7.17Q284.54-4.80 285.38-3.81L285.38-3.81L285.38-3.81Q286.21-2.82 288.19-2.82L288.19-2.82L288.19-2.82Q290.11-2.82 291.71-3.01L291.71-3.01L291.90-2.75L291.33 0.19L289.22 0.13L281.92 0L281.92 0Q278.40 0 273.15 0.26L273.15 0.26Z" fill="#ffffff"></path></g></g><style>text {
  font-size: 64px;
  font-family: Arial Black;
  dominant-baseline: central;
  text-anchor: middle;
}</style></svg>